<mxfile host="app.diagrams.net" agent="Mozilla/5.0 (X11; Linux x86_64) AppleWebKit/537.36 (KHTML, like Gecko) Chrome/131.0.0.0 Safari/537.36" version="25.0.3">
  <diagram name="Page-1" id="RC7_iYQg-gNcwzrBWBoC">
    <mxGraphModel dx="1050" dy="570" grid="1" gridSize="10" guides="1" tooltips="1" connect="1" arrows="1" fold="1" page="1" pageScale="1" pageWidth="1100" pageHeight="850" math="0" shadow="0">
      <root>
        <mxCell id="0" />
        <mxCell id="1" parent="0" />
        <mxCell id="3p7cboEdOOLLmn491Co7-1" value="Repository" style="whiteSpace=wrap;html=1;aspect=fixed;fillColor=#dae8fc;strokeColor=#6c8ebf;" parent="1" vertex="1">
          <mxGeometry x="93" y="310" width="80" height="80" as="geometry" />
        </mxCell>
        <mxCell id="3p7cboEdOOLLmn491Co7-2" value="Ruleset" style="whiteSpace=wrap;html=1;aspect=fixed;fillColor=#dae8fc;strokeColor=#6c8ebf;" parent="1" vertex="1">
          <mxGeometry x="253" y="420" width="80" height="80" as="geometry" />
        </mxCell>
        <mxCell id="3p7cboEdOOLLmn491Co7-3" value="Rule" style="whiteSpace=wrap;html=1;aspect=fixed;fillColor=#dae8fc;strokeColor=#6c8ebf;" parent="1" vertex="1">
          <mxGeometry x="413" y="535" width="80" height="80" as="geometry" />
        </mxCell>
        <mxCell id="3p7cboEdOOLLmn491Co7-4" value="When" style="rhombus;whiteSpace=wrap;html=1;fillColor=#dae8fc;strokeColor=#6c8ebf;" parent="1" vertex="1">
          <mxGeometry x="233" y="670" width="80" height="80" as="geometry" />
        </mxCell>
        <mxCell id="3p7cboEdOOLLmn491Co7-5" value="Then&lt;div&gt;&lt;br&gt;&lt;/div&gt;" style="rounded=0;whiteSpace=wrap;html=1;fillColor=#dae8fc;strokeColor=#6c8ebf;" parent="1" vertex="1">
          <mxGeometry x="573" y="680" width="120" height="60" as="geometry" />
        </mxCell>
        <mxCell id="3p7cboEdOOLLmn491Co7-20" style="edgeStyle=orthogonalEdgeStyle;rounded=0;orthogonalLoop=1;jettySize=auto;html=1;exitX=1;exitY=0.75;exitDx=0;exitDy=0;entryX=0;entryY=0.5;entryDx=0;entryDy=0;fillColor=#d5e8d4;strokeColor=#82b366;" parent="1" source="3p7cboEdOOLLmn491Co7-6" target="3p7cboEdOOLLmn491Co7-9" edge="1">
          <mxGeometry relative="1" as="geometry" />
        </mxCell>
        <mxCell id="3p7cboEdOOLLmn491Co7-21" value="Creates" style="edgeLabel;html=1;align=center;verticalAlign=middle;resizable=0;points=[];" parent="3p7cboEdOOLLmn491Co7-20" vertex="1" connectable="0">
          <mxGeometry x="-0.2182" y="-2" relative="1" as="geometry">
            <mxPoint x="34" y="28" as="offset" />
          </mxGeometry>
        </mxCell>
        <mxCell id="3p7cboEdOOLLmn491Co7-6" value="Session" style="whiteSpace=wrap;html=1;aspect=fixed;fillColor=#d5e8d4;strokeColor=#82b366;" parent="1" vertex="1">
          <mxGeometry x="410" y="210" width="80" height="80" as="geometry" />
        </mxCell>
        <mxCell id="3p7cboEdOOLLmn491Co7-8" value="Fact" style="whiteSpace=wrap;html=1;aspect=fixed;fillColor=#ffe6cc;strokeColor=#d79b00;" parent="1" vertex="1">
          <mxGeometry x="693" y="70" width="80" height="80" as="geometry" />
        </mxCell>
        <mxCell id="3p7cboEdOOLLmn491Co7-9" value="Graph" style="whiteSpace=wrap;html=1;aspect=fixed;fillColor=#ffe6cc;strokeColor=#d79b00;" parent="1" vertex="1">
          <mxGeometry x="738" y="280" width="80" height="80" as="geometry" />
        </mxCell>
        <mxCell id="3p7cboEdOOLLmn491Co7-10" value="Node" style="whiteSpace=wrap;html=1;aspect=fixed;fillColor=#ffe6cc;strokeColor=#d79b00;" parent="1" vertex="1">
          <mxGeometry x="928" y="410" width="80" height="80" as="geometry" />
        </mxCell>
        <mxCell id="3p7cboEdOOLLmn491Co7-11" value="Leaf" style="whiteSpace=wrap;html=1;aspect=fixed;fillColor=#ffe6cc;strokeColor=#d79b00;" parent="1" vertex="1">
          <mxGeometry x="738" y="510" width="80" height="80" as="geometry" />
        </mxCell>
        <mxCell id="3p7cboEdOOLLmn491Co7-15" value="" style="edgeStyle=entityRelationEdgeStyle;fontSize=12;html=1;endArrow=ERoneToMany;rounded=0;entryX=0;entryY=0.25;entryDx=0;entryDy=0;exitX=1;exitY=0.5;exitDx=0;exitDy=0;fillColor=#d5e8d4;strokeColor=#82b366;" parent="1" source="3p7cboEdOOLLmn491Co7-9" target="3p7cboEdOOLLmn491Co7-10" edge="1">
          <mxGeometry width="100" height="100" relative="1" as="geometry">
            <mxPoint x="623" y="540" as="sourcePoint" />
            <mxPoint x="723" y="440" as="targetPoint" />
          </mxGeometry>
        </mxCell>
        <mxCell id="hTZwY5HHQxkWMezb6eO1-17" value="Creates" style="edgeLabel;html=1;align=center;verticalAlign=middle;resizable=0;points=[];" parent="3p7cboEdOOLLmn491Co7-15" vertex="1" connectable="0">
          <mxGeometry x="0.2627" y="-1" relative="1" as="geometry">
            <mxPoint x="8" y="-47" as="offset" />
          </mxGeometry>
        </mxCell>
        <mxCell id="hTZwY5HHQxkWMezb6eO1-24" value="1.**" style="edgeLabel;html=1;align=center;verticalAlign=middle;resizable=0;points=[];" parent="3p7cboEdOOLLmn491Co7-15" vertex="1" connectable="0">
          <mxGeometry x="0.4156" relative="1" as="geometry">
            <mxPoint x="11" as="offset" />
          </mxGeometry>
        </mxCell>
        <mxCell id="3p7cboEdOOLLmn491Co7-16" value="" style="edgeStyle=entityRelationEdgeStyle;fontSize=12;html=1;endArrow=ERoneToMany;rounded=0;exitX=0;exitY=0.75;exitDx=0;exitDy=0;entryX=1;entryY=0.5;entryDx=0;entryDy=0;fillColor=#d5e8d4;strokeColor=#82b366;" parent="1" source="3p7cboEdOOLLmn491Co7-10" target="3p7cboEdOOLLmn491Co7-11" edge="1">
          <mxGeometry width="100" height="100" relative="1" as="geometry">
            <mxPoint x="623" y="540" as="sourcePoint" />
            <mxPoint x="723" y="440" as="targetPoint" />
          </mxGeometry>
        </mxCell>
        <mxCell id="hTZwY5HHQxkWMezb6eO1-18" value="Creates" style="edgeLabel;html=1;align=center;verticalAlign=middle;resizable=0;points=[];" parent="3p7cboEdOOLLmn491Co7-16" vertex="1" connectable="0">
          <mxGeometry x="-0.092" y="4" relative="1" as="geometry">
            <mxPoint x="20" y="14" as="offset" />
          </mxGeometry>
        </mxCell>
        <mxCell id="hTZwY5HHQxkWMezb6eO1-25" value="1.**" style="edgeLabel;html=1;align=center;verticalAlign=middle;resizable=0;points=[];" parent="3p7cboEdOOLLmn491Co7-16" vertex="1" connectable="0">
          <mxGeometry x="-0.3654" y="4" relative="1" as="geometry">
            <mxPoint x="-21" as="offset" />
          </mxGeometry>
        </mxCell>
        <mxCell id="3p7cboEdOOLLmn491Co7-17" value="" style="edgeStyle=entityRelationEdgeStyle;fontSize=12;html=1;endArrow=ERoneToMany;rounded=0;exitX=1;exitY=0.25;exitDx=0;exitDy=0;" parent="1" source="3p7cboEdOOLLmn491Co7-6" target="3p7cboEdOOLLmn491Co7-8" edge="1">
          <mxGeometry width="100" height="100" relative="1" as="geometry">
            <mxPoint x="422.96" y="750" as="sourcePoint" />
            <mxPoint x="442.99999999999994" y="620" as="targetPoint" />
            <Array as="points">
              <mxPoint x="442.96" y="660" />
              <mxPoint x="430" y="170" />
              <mxPoint x="293" y="370" />
              <mxPoint x="433" y="410" />
              <mxPoint x="363" y="400" />
              <mxPoint x="452.96" y="720" />
              <mxPoint x="412.96" y="650" />
              <mxPoint x="412.96" y="660" />
            </Array>
          </mxGeometry>
        </mxCell>
        <mxCell id="3p7cboEdOOLLmn491Co7-22" value="" style="edgeStyle=entityRelationEdgeStyle;fontSize=12;html=1;endArrow=ERoneToMany;rounded=0;entryX=0;entryY=0.5;entryDx=0;entryDy=0;" parent="1" target="3p7cboEdOOLLmn491Co7-2" edge="1">
          <mxGeometry width="100" height="100" relative="1" as="geometry">
            <mxPoint x="173" y="380" as="sourcePoint" />
            <mxPoint x="233" y="250" as="targetPoint" />
          </mxGeometry>
        </mxCell>
        <mxCell id="3p7cboEdOOLLmn491Co7-24" value="" style="edgeStyle=entityRelationEdgeStyle;fontSize=12;html=1;endArrow=ERoneToMany;rounded=0;exitX=1;exitY=0.5;exitDx=0;exitDy=0;entryX=0;entryY=0.25;entryDx=0;entryDy=0;" parent="1" source="3p7cboEdOOLLmn491Co7-2" target="3p7cboEdOOLLmn491Co7-3" edge="1">
          <mxGeometry width="100" height="100" relative="1" as="geometry">
            <mxPoint x="443" y="740" as="sourcePoint" />
            <mxPoint x="543" y="640" as="targetPoint" />
          </mxGeometry>
        </mxCell>
        <mxCell id="3p7cboEdOOLLmn491Co7-25" value="" style="edgeStyle=entityRelationEdgeStyle;fontSize=12;html=1;endArrow=ERoneToMany;rounded=0;entryX=0;entryY=0.5;entryDx=0;entryDy=0;exitX=1;exitY=0.5;exitDx=0;exitDy=0;" parent="1" source="3p7cboEdOOLLmn491Co7-3" target="3p7cboEdOOLLmn491Co7-5" edge="1">
          <mxGeometry width="100" height="100" relative="1" as="geometry">
            <mxPoint x="403" y="540" as="sourcePoint" />
            <mxPoint x="503" y="440" as="targetPoint" />
          </mxGeometry>
        </mxCell>
        <mxCell id="3p7cboEdOOLLmn491Co7-26" value="" style="edgeStyle=entityRelationEdgeStyle;fontSize=12;html=1;endArrow=ERoneToMany;rounded=0;exitX=0;exitY=0.75;exitDx=0;exitDy=0;entryX=1;entryY=0.5;entryDx=0;entryDy=0;" parent="1" source="3p7cboEdOOLLmn491Co7-3" target="3p7cboEdOOLLmn491Co7-4" edge="1">
          <mxGeometry width="100" height="100" relative="1" as="geometry">
            <mxPoint x="403" y="540" as="sourcePoint" />
            <mxPoint x="503" y="440" as="targetPoint" />
          </mxGeometry>
        </mxCell>
        <mxCell id="hTZwY5HHQxkWMezb6eO1-2" value="" style="endArrow=none;dashed=1;html=1;rounded=0;entryX=0;entryY=0.5;entryDx=0;entryDy=0;edgeStyle=orthogonalEdgeStyle;exitX=0.5;exitY=0;exitDx=0;exitDy=0;curved=1;" parent="1" source="3p7cboEdOOLLmn491Co7-3" target="3p7cboEdOOLLmn491Co7-10" edge="1">
          <mxGeometry width="50" height="50" relative="1" as="geometry">
            <mxPoint x="458" y="530" as="sourcePoint" />
            <mxPoint x="568" y="350" as="targetPoint" />
            <Array as="points">
              <mxPoint x="463" y="535" />
              <mxPoint x="463" y="480" />
              <mxPoint x="711" y="480" />
              <mxPoint x="711" y="450" />
            </Array>
          </mxGeometry>
        </mxCell>
        <mxCell id="hTZwY5HHQxkWMezb6eO1-22" value="1..1" style="edgeLabel;html=1;align=center;verticalAlign=middle;resizable=0;points=[];" parent="hTZwY5HHQxkWMezb6eO1-2" vertex="1" connectable="0">
          <mxGeometry x="0.0107" y="4" relative="1" as="geometry">
            <mxPoint y="-16" as="offset" />
          </mxGeometry>
        </mxCell>
        <mxCell id="hTZwY5HHQxkWMezb6eO1-6" value="" style="endArrow=none;dashed=1;html=1;rounded=0;entryX=1;entryY=0.5;entryDx=0;entryDy=0;edgeStyle=orthogonalEdgeStyle;curved=1;exitX=0.5;exitY=0;exitDx=0;exitDy=0;" parent="1" source="3p7cboEdOOLLmn491Co7-10" target="3p7cboEdOOLLmn491Co7-8" edge="1">
          <mxGeometry width="50" height="50" relative="1" as="geometry">
            <mxPoint x="960" y="400" as="sourcePoint" />
            <mxPoint x="570" y="440" as="targetPoint" />
            <Array as="points">
              <mxPoint x="960" y="410" />
              <mxPoint x="960" y="310" />
              <mxPoint x="930" y="310" />
              <mxPoint x="930" y="130" />
            </Array>
          </mxGeometry>
        </mxCell>
        <mxCell id="hTZwY5HHQxkWMezb6eO1-26" value="1.**" style="edgeLabel;html=1;align=center;verticalAlign=middle;resizable=0;points=[];" parent="hTZwY5HHQxkWMezb6eO1-6" vertex="1" connectable="0">
          <mxGeometry x="-0.1073" y="8" relative="1" as="geometry">
            <mxPoint x="18" as="offset" />
          </mxGeometry>
        </mxCell>
        <mxCell id="hTZwY5HHQxkWMezb6eO1-10" value="" style="shape=flexArrow;endArrow=classic;html=1;rounded=0;fillColor=#d5e8d4;strokeColor=#82b366;exitX=0.5;exitY=1;exitDx=0;exitDy=0;" parent="1" source="hTZwY5HHQxkWMezb6eO1-12" edge="1">
          <mxGeometry width="50" height="50" relative="1" as="geometry">
            <mxPoint x="452.5" y="150" as="sourcePoint" />
            <mxPoint x="452.5" y="210" as="targetPoint" />
          </mxGeometry>
        </mxCell>
        <mxCell id="hTZwY5HHQxkWMezb6eO1-11" value="" style="endArrow=none;dashed=1;html=1;rounded=0;exitX=0.5;exitY=0;exitDx=0;exitDy=0;entryX=0.5;entryY=1;entryDx=0;entryDy=0;edgeStyle=orthogonalEdgeStyle;curved=1;" parent="1" source="3p7cboEdOOLLmn491Co7-2" target="3p7cboEdOOLLmn491Co7-6" edge="1">
          <mxGeometry width="50" height="50" relative="1" as="geometry">
            <mxPoint x="390" y="400" as="sourcePoint" />
            <mxPoint x="440" y="350" as="targetPoint" />
          </mxGeometry>
        </mxCell>
        <mxCell id="hTZwY5HHQxkWMezb6eO1-13" value="1..1" style="edgeLabel;html=1;align=center;verticalAlign=middle;resizable=0;points=[];" parent="hTZwY5HHQxkWMezb6eO1-11" vertex="1" connectable="0">
          <mxGeometry x="0.25" y="2" relative="1" as="geometry">
            <mxPoint x="5" y="7" as="offset" />
          </mxGeometry>
        </mxCell>
        <mxCell id="hTZwY5HHQxkWMezb6eO1-12" value="&lt;b&gt;&lt;font style=&quot;font-size: 19px;&quot;&gt;knowledgenet.Service(Repository).execute (Fact[])&lt;/font&gt;&lt;/b&gt;" style="text;html=1;align=center;verticalAlign=middle;whiteSpace=wrap;rounded=0;" parent="1" vertex="1">
          <mxGeometry x="233" y="50" width="440" height="50" as="geometry" />
        </mxCell>
        <mxCell id="Vqbwu5_xEdoBO6F1TTGz-4" value="Creates" style="text;html=1;align=center;verticalAlign=middle;whiteSpace=wrap;rounded=0;" parent="1" vertex="1">
          <mxGeometry x="460" y="150" width="60" height="30" as="geometry" />
        </mxCell>
        <mxCell id="Vqbwu5_xEdoBO6F1TTGz-5" value="1..*" style="text;html=1;align=center;verticalAlign=middle;whiteSpace=wrap;rounded=0;" parent="1" vertex="1">
          <mxGeometry x="450" y="190" width="60" height="30" as="geometry" />
        </mxCell>
      </root>
    </mxGraphModel>
  </diagram>
</mxfile>
